<?xml version="1.0" encoding="UTF-8"?>
<svg xmlns="http://www.w3.org/2000/svg" xmlns:xlink="http://www.w3.org/1999/xlink" width="35px" height="35px" viewBox="0 0 35 35" version="1.1">
<g id="surface1">
<path style=" stroke:none;fill-rule:evenodd;fill:rgb(100%,100%,100%);fill-opacity:1;" d="M 17.5 0 C 27.164062 0 35 8.03125 35 17.941406 C 35 25.867188 29.992188 32.59375 23.042969 34.964844 C 22.15625 35.144531 21.839844 34.582031 21.839844 34.105469 C 21.839844 33.515625 21.859375 31.582031 21.859375 29.179688 C 21.859375 27.507812 21.300781 26.417969 20.671875 25.859375 C 24.570312 25.414062 28.664062 23.898438 28.664062 17.007812 C 28.664062 15.046875 27.984375 13.445312 26.863281 12.191406 C 27.042969 11.738281 27.644531 9.910156 26.691406 7.441406 C 26.691406 7.441406 25.222656 6.960938 21.882812 9.28125 C 20.484375 8.882812 18.988281 8.683594 17.5 8.675781 C 16.011719 8.683594 14.515625 8.882812 13.121094 9.28125 C 9.777344 6.960938 8.304688 7.441406 8.304688 7.441406 C 7.355469 9.910156 7.957031 11.738281 8.136719 12.191406 C 7.015625 13.445312 6.332031 15.046875 6.332031 17.007812 C 6.332031 23.878906 10.417969 25.421875 14.304688 25.875 C 13.804688 26.320312 13.351562 27.113281 13.195312 28.273438 C 12.199219 28.730469 9.664062 29.523438 8.101562 26.78125 C 8.101562 26.78125 7.175781 25.058594 5.417969 24.933594 C 5.417969 24.933594 3.714844 24.910156 5.300781 26.023438 C 5.300781 26.023438 6.445312 26.574219 7.242188 28.648438 C 7.242188 28.648438 8.269531 31.851562 13.140625 30.765625 C 13.148438 32.265625 13.164062 33.679688 13.164062 34.105469 C 13.164062 34.578125 12.839844 35.132812 11.96875 34.96875 C 5.015625 32.597656 0 25.871094 0 17.941406 C 0 8.03125 7.835938 0 17.5 0 "/>
</g>
</svg>
